# xmcd
#
# Track frame offsets:
# 150
# 11333
# 20542
# 43060
# 53192
# 70228
# 88907
# 102563
# 119254
# 130941
#
# Disc length: 1908 seconds
#
#
# Revision: 0
# Processed by: cddbd v1.4PL0 Copyright (c) Steve Scherf et al.
# Submitted via: FreeRIP 2.30 
#
DISCID=8707720a
DTITLE=Nicole Dumont - Nicole Dumont Intégrale
DYEAR=2000
DGENRE=Country
TTITLE0=Ma Gaspésie
TTITLE1=Le Chauffeur Chantant
TTITLE2=Écoute-moi
TTITLE3=Attention
TTITLE4=Merci d'être là
TTITLE5=Toi mon Amoureux
TTITLE6=Laisse- Moi te dire
TTITLE7=Mon Idole
TTITLE8=Une rose de soie
TTITLE9=Elle est Belle
EXTD=
EXTT0=
EXTT1=
EXTT2=
EXTT3=
EXTT4=
EXTT5=
EXTT6=
EXTT7=
EXTT8=
EXTT9=
PLAYORDER=
